<svg version="1.1" id="Layer_1" xmlns="http://www.w3.org/2000/svg" xmlns:xlink="http://www.w3.org/1999/xlink" x="0px" y="0px"
	 width="100%" viewBox="0 0 624 464" enable-background="new 0 0 624 464" xml:space="preserve">
<path fill="#000000" opacity="1.000000" stroke="none" 
	d="
M255.934113,192.825897 
	C269.894928,191.689407 283.820526,190.473755 297.380737,193.120438 
	C318.371368,197.217422 326.190430,223.165298 311.801910,239.135452 
	C311.144958,239.864624 310.540649,240.641174 309.565613,241.811035 
	C319.475159,254.059509 329.342529,266.255798 339.356476,278.633301 
	C331.573639,281.680389 326.187317,280.527008 321.864990,275.239868 
	C311.763062,262.883026 301.698120,250.495987 291.710358,238.234360 
	C292.555817,236.161560 294.269714,236.247864 295.555573,235.698837 
	C302.586121,232.696976 307.222198,225.293304 306.099884,218.748718 
	C304.833893,211.366226 297.192505,204.529770 289.778534,204.345917 
	C284.118073,204.205582 278.370056,203.684662 272.806519,204.425629 
	C263.482452,205.667465 259.357697,200.014694 255.934113,192.825897 
z"/>
<path fill="#000000" opacity="1.000000" stroke="none" 
	d="
M340.718994,214.740753 
	C345.570129,208.784500 350.206604,203.111633 354.792145,197.397873 
	C359.478699,191.558151 364.718719,190.227432 372.824158,193.295883 
	C369.786835,197.175827 366.921051,200.960373 363.925446,204.639236 
	C356.146729,214.192139 348.398773,223.772949 340.439850,233.174438 
	C338.288666,235.715530 338.255768,237.464050 340.364014,240.009903 
	C349.920563,251.549988 359.317841,263.222137 368.747345,274.867004 
	C369.752472,276.108276 371.297516,277.069153 371.227966,278.970215 
	C363.760742,281.770691 358.482697,280.419678 353.786560,274.651154 
	C344.640137,263.416138 335.544434,252.137512 326.228973,241.043823 
	C323.570770,237.878204 323.583557,235.460831 326.233704,232.386551 
	C331.123535,226.714127 335.747375,220.812393 340.718994,214.740753 
z"/>
<path fill="#000000" opacity="1.000000" stroke="none" 
	d="
M300.881592,280.043518 
	C295.873871,280.679169 292.743042,278.833038 289.871124,275.162292 
	C281.576172,264.560028 272.872528,254.278290 264.393768,243.818497 
	C262.873260,241.942734 260.868835,240.315857 260.375397,237.727371 
	C268.550842,234.990417 273.075897,236.241669 278.134491,242.437912 
	C287.382996,253.766281 296.670776,265.062592 305.930389,276.381927 
	C306.437897,277.002350 306.837372,277.711182 307.363586,278.492340 
	C305.617767,280.758148 303.303070,279.785278 300.881592,280.043518 
z"/>
</svg>